<svg width="469" height="147" viewBox="0 0 469 147" version="1.1" xmlns="http://www.w3.org/2000/svg" xmlns:xlink="http://www.w3.org/1999/xlink">
<title>logo</title>
<desc>Created using Figma</desc>
<g id="Canvas" transform="translate(312 -4331)">
<g id="logo">
<g id="Group">
<g id="Vector">
<use xlink:href="#path0_fill" transform="matrix(1.25 0 0 -1.25 -312 4477.95)" fill="#8BF7E5"/>
</g>
<g id="Vector">
<use xlink:href="#path1_fill" transform="matrix(1.25 0 0 -1.25 -241.175 4372.11)"/>
</g>
<g id="Vector">
<use xlink:href="#path2_fill" transform="matrix(1.25 0 0 -1.25 -290.678 4457.79)" fill="#333333"/>
</g>
<g id="Vector">
<use xlink:href="#path2_fill" transform="matrix(1.25 0 0 -1.25 -290.678 4457.79)" fill="#333333"/>
</g>
<g id="Vector">
<use xlink:href="#path3_fill" transform="matrix(1.25 0 0 -1.25 -144.319 4422.39)" fill="#333333"/>
</g>
<g id="Vector">
<use xlink:href="#path4_fill" transform="matrix(1.25 0 0 -1.25 -81.415 4422.96)" fill="#333333"/>
</g>
<g id="Vector">
<use xlink:href="#path5_fill" transform="matrix(1.25 0 0 -1.25 -37.1175 4422.79)" fill="#333333"/>
</g>
<g id="Vector">
<use xlink:href="#path6_fill" transform="matrix(1.25 0 0 -1.25 -16.7406 4423.04)" fill="#333333"/>
</g>
<g id="Vector">
<use xlink:href="#path7_fill" transform="matrix(1.25 0 0 -1.25 28.0424 4423.36)" fill="#333333"/>
</g>
<g id="Vector">
<use xlink:href="#path8_fill" transform="matrix(1.25 0 0 -1.25 77.6574 4422.39)"/>
</g>
<g id="Vector">
<use xlink:href="#path9_fill" transform="matrix(1.25 0 0 -1.25 142.011 4422.39)" fill="#333333"/>
</g>
<g id="Vector">
<use xlink:href="#path10_fill" transform="matrix(1.25 0 0 -1.25 141.38 4378.1)" fill="#333333"/>
</g>
<g id="Vector">
<use xlink:href="#path11_fill" transform="matrix(1.25 0 0 -1.25 -143.69 4452.54)" fill="#4F4F4F"/>
</g>
<g id="Vector">
<use xlink:href="#path12_fill" transform="matrix(1.25 0 0 -1.25 -132.689 4452.61)" fill="#4F4F4F"/>
</g>
<g id="Vector">
<use xlink:href="#path13_fill" transform="matrix(1.25 0 0 -1.25 -107.374 4452.41)" fill="#4F4F4F"/>
</g>
<g id="Vector">
<use xlink:href="#path14_fill" transform="matrix(1.25 0 0 -1.25 -92.7462 4452.61)" fill="#4F4F4F"/>
</g>
<g id="Vector">
<use xlink:href="#path15_fill" transform="matrix(1.25 0 0 -1.25 -74.8337 4458.03)" fill="#4F4F4F"/>
</g>
<g id="Vector">
<use xlink:href="#path16_fill" transform="matrix(1.25 0 0 -1.25 -58.5325 4452.61)" fill="#4F4F4F"/>
</g>
<g id="Vector">
<use xlink:href="#path17_fill" transform="matrix(1.25 0 0 -1.25 -43.59 4458.15)" fill="#4F4F4F"/>
</g>
<g id="Vector">
<use xlink:href="#path18_fill" transform="matrix(1.25 0 0 -1.25 -34.726 4457.77)" fill="#4F4F4F"/>
</g>
<g id="Vector">
<use xlink:href="#path19_fill" transform="matrix(1.25 0 0 -1.25 -12.2875 4452.41)" fill="#4F4F4F"/>
</g>
<g id="Vector">
<use xlink:href="#path20_fill" transform="matrix(1.25 0 0 -1.25 0.0987892 4452.41)" fill="#4F4F4F"/>
</g>
<g id="Vector">
<use xlink:href="#path21_fill" transform="matrix(1.25 0 0 -1.25 21.4649 4452.76)" fill="#4F4F4F"/>
</g>
<g id="Vector">
<use xlink:href="#path22_fill" transform="matrix(1.25 0 0 -1.25 39.8987 4452.41)" fill="#4F4F4F"/>
</g>
<g id="Vector">
<use xlink:href="#path23_fill" transform="matrix(1.25 0 0 -1.25 53.2599 4452.41)" fill="#4F4F4F"/>
</g>
<g id="Vector">
<use xlink:href="#path24_fill" transform="matrix(1.25 0 0 -1.25 67.8312 4452.41)" fill="#4F4F4F"/>
</g>
<g id="Vector">
<use xlink:href="#path25_fill" transform="matrix(1.25 0 0 -1.25 84.7649 4452.76)" fill="#4F4F4F"/>
</g>
<g id="Vector">
<use xlink:href="#path26_fill" transform="matrix(1.25 0 0 -1.25 98.9612 4458.15)" fill="#4F4F4F"/>
</g>
<g id="Vector">
<use xlink:href="#path27_fill" transform="matrix(1.25 0 0 -1.25 107.832 4452.76)" fill="#4F4F4F"/>
</g>
<g id="Vector">
<use xlink:href="#path28_fill" transform="matrix(1.25 0 0 -1.25 126.295 4452.41)" fill="#4F4F4F"/>
</g>
<g id="Vector">
<use xlink:href="#path29_fill" transform="matrix(1.25 0 0 -1.25 153 4452.27)" fill="#4F4F4F"/>
</g>
</g>
</g>
</g>
<defs>
<path id="path0_fill" d="M 1.28174e-06 58.781C 1.28174e-06 91.242 26.316 117.559 58.78 117.559C 91.242 117.559 117.56 91.242 117.56 58.78C 117.56 26.315 91.242 -3.41797e-06 58.78 -3.41797e-06C 26.316 -3.41797e-06 1.28174e-06 26.315 1.28174e-06 58.78"/>
<path id="path1_fill" d="M 0.163651 1.9032C 0.0385008 2.25685 -0.0157606 2.63167 0.00395204 3.00629C 0.0236647 3.38091 0.11696 3.74799 0.278534 4.08655C 0.440108 4.42511 0.666796 4.72853 0.945633 4.97949C 1.22447 5.23045 1.55001 5.42405 1.90366 5.5492C 2.25731 5.67435 2.63214 5.72858 3.00676 5.70886C 3.38138 5.68915 3.74846 5.59584 4.08702 5.43427C 4.42558 5.27269 4.72901 5.04605 4.97997 4.76721C 5.23092 4.48838 5.4245 4.16286 5.54965 3.80921C 5.8024 3.09511 5.76113 2.30982 5.43491 1.62616C 5.10869 0.942497 4.52425 0.416449 3.81015 0.163698C 3.09605 -0.0890537 2.3108 -0.0477757 1.62714 0.278444C 0.943472 0.604663 0.417409 1.1891 0.164658 1.9032"/>
<path id="path2_fill" d="M 64.1715 35.231C 63.9611 38.97 63.2183 42.6599 61.9655 46.189C 60.3138 50.869 57.7891 55.1931 54.5255 58.932L 54.5525 58.966C 56.2685 61.1401 57.1958 63.8323 57.1825 66.602C 57.1825 73.445 51.6365 78.994 44.7915 78.994C 42.3652 78.9993 39.9911 78.2901 37.9653 76.9549C 35.9394 75.6198 34.3515 73.7177 33.3995 71.486L 33.3885 71.46C 26.2024 73.0556 18.7121 72.5936 11.7765 70.127C 10.3997 69.6377 9.05072 69.0735 7.7355 68.437C 15.5255 78.686 27.8475 85.304 41.7145 85.304L 67.9795 85.304C 69.5521 85.3037 71.0601 84.6788 72.172 83.5668C 73.2839 82.4547 73.9085 80.9466 73.9085 79.374C 73.909 78.2627 73.5973 77.1736 73.0089 76.2309C 72.4205 75.2882 71.579 74.5297 70.5805 74.042L 70.5855 74.046C 79.0575 66.252 84.3655 55.072 84.3655 42.653C 84.3655 19.096 65.2705 -1.26953e-05 41.7145 -1.26953e-05C 23.8285 -1.26953e-05 8.5145 11.009 2.1775 26.62L 2.1775 26.623C 2.0115 27.033 1.8535 27.453 1.7025 27.877C -3.7425 43.25 4.3055 60.126 19.6785 65.57C 35.0515 71.015 51.9255 62.966 57.3715 47.594C 58.8075 43.539 58.9945 39.546 58.6655 35.52C 58.6655 35.52 58.5495 34.739 58.5495 33.77C 58.5495 33.0224 58.8465 32.3053 59.3752 31.7767C 59.9038 31.248 60.6209 30.951 61.3685 30.951C 62.1161 30.951 62.8332 31.248 63.3618 31.7767C 63.8905 32.3053 64.1875 33.0224 64.1875 33.77C 64.1875 33.77 64.2055 34.412 64.1725 35.23"/>
<path id="path3_fill" d="M 24.293 29.256C 27.58 33.443 34.668 33.959 39.5 31.639C 43.559 29.706 46.523 25.776 46.523 19.46L 46.523 3.90625e-06L 36.085 3.90625e-06L 36.085 19.59C 36.085 22.617 34.281 23.906 32.219 23.906C 30.092 23.906 28.61 22.359 28.61 19.589L 28.61 3.90625e-06L 18.364 3.90625e-06L 18.364 19.397C 18.364 22.038 16.689 23.842 14.627 23.971C 13.403 24.035 11.792 23.649 10.567 22.489L 10.567 3.90625e-06L -2.0752e-06 3.90625e-06L -2.0752e-06 32.67L 8.699 32.67L 9.601 29.126C 12.243 34.281 21.715 34.216 24.293 29.256Z"/>
<path id="path4_fill" d="M 14.24 8.63402C 16.108 8.63402 17.978 9.08402 19.201 10.181L 19.201 13.725C 17.848 14.369 15.786 14.563 14.433 14.563C 9.47299 14.563 9.215 8.57002 14.24 8.63402ZM 21.2 0.450004L 20.104 3.73803C 17.848 0.773029 14.949 -8.30078e-06 12.244 -8.30078e-06C 4.059 -8.30078e-06 1.12305e-05 5.348 1.12305e-05 11.148C 1.12305e-05 17.978 6.38001 21.458 12.694 21.585C 14.886 21.651 17.076 21.393 19.01 20.555L 19.01 21.585C 19.01 23.97 16.754 25.259 13.146 25.259C 10.246 25.259 6.95999 24.292 5.15599 23.069L 1.93299 29.061C 6.25099 32.541 10.825 33.765 15.208 33.765C 22.746 33.765 29.898 30.995 29.898 21.328L 29.898 0.450004L 21.2 0.450004Z"/>
<path id="path5_fill" d="M 15.015 0.452009C 13.211 0.129009 11.857 -1.75781e-05 10.697 -1.75781e-05C 4.51099 -1.75781e-05 -4.88281e-07 3.22202 -4.88281e-07 11.212L -4.88281e-07 45.429L 10.826 45.429L 10.826 11.212C 10.826 9.47302 11.341 7.73198 15.015 8.11998L 15.015 0.452009Z"/>
<path id="path6_fill" d="M 22.5535 20.556C 21.5875 26.936 11.7285 26.614 10.8275 20.556L 22.5535 20.556ZM 10.9555 13.404C 11.4715 10.117 14.5655 8.82802 17.2705 8.82802C 20.2355 8.82802 21.7805 9.60202 23.9705 11.729L 29.7065 6.70198C 25.1315 1.73998 21.5865 1.26953e-05 16.8205 1.26953e-05C 5.54253 1.26953e-05 -0.0624734 8.50601 0.000526649 16.948C 0.000526649 25.389 5.41452 33.959 16.7545 33.959C 27.7085 33.959 34.8625 24.939 32.4785 13.404L 10.9555 13.404Z"/>
<path id="path7_fill" d="M 17.463 9.34399C 20.815 9.34399 24.164 11.858 24.164 17.076C 24.164 22.232 20.815 24.809 17.464 24.809C 14.112 24.809 10.824 22.166 10.824 17.076C 10.824 11.921 14.176 9.34399 17.464 9.34399L 17.463 9.34399ZM 17.464 -6.34766e-06C 7.66801 -6.34766e-06 -9.76562e-06 6.44498 -9.76562e-06 17.076C -9.76562e-06 27.322 7.668 34.346 17.463 34.346C 27.387 34.346 34.989 27.516 34.989 17.076C 34.989 6.82998 27.387 -6.34766e-06 17.463 -6.34766e-06"/>
<path id="path8_fill" d="M 24.293 29.256C 27.58 33.443 34.668 33.959 39.501 31.639C 43.56 29.706 46.524 25.776 46.524 19.46L 46.524 3.90625e-06L 36.084 3.90625e-06L 36.084 19.59C 36.084 22.617 34.281 23.906 32.219 23.906C 30.092 23.906 28.609 22.359 28.609 19.589L 28.609 3.90625e-06L 18.364 3.90625e-06L 18.364 19.397C 18.364 22.038 16.689 23.842 14.628 23.971C 13.403 24.035 11.793 23.649 10.568 22.489L 10.568 3.90625e-06L 6.83594e-06 3.90625e-06L 6.83594e-06 32.67L 8.69999 32.67L 9.602 29.126C 12.242 34.281 21.716 34.216 24.292 29.256"/>
<path id="path9_fill" d="M 10.825 3.90625e-06L 8.54492e-06 3.90625e-06L 8.54492e-06 32.541L 10.825 32.541L 10.825 3.90625e-06Z"/>
<path id="path10_fill" d="M 3.74663e-06 5.92502C 0.000268963 7.49616 0.62466 9.00284 1.73581 10.1136C 2.84697 11.2244 4.35385 11.8483 5.92499 11.848C 7.49613 11.8477 9.00284 11.2234 10.1136 10.1122C 11.2244 9.00106 11.8483 7.49415 11.848 5.92301C 11.8477 4.35187 11.2233 2.84519 10.1122 1.73441C 9.00103 0.623631 7.49415 -0.000291987 5.92301 -2.67709e-05C 4.35187 0.000238446 2.84516 0.62466 1.73438 1.73581C 0.623601 2.84697 -0.00026147 4.35388 3.74663e-06 5.92502Z"/>
<path id="path11_fill" d="M 6.081 0.0339126C 3.686 -0.220087 1.91201 0.954916 1.91201 3.51292L 1.91201 10.3549L 3.90625e-06 10.3549L 3.90625e-06 11.7849L 1.91201 11.7849L 1.91201 15.0549L 3.709 15.2149L 3.709 11.7849L 6.081 11.7849L 6.081 10.3549L 3.709 10.3549L 3.709 3.51292C 3.709 2.06292 4.584 1.4619 6.081 1.5759L 6.081 0.0339126Z"/>
<path id="path12_fill" d="M 9.09801 0.162027L 8.843 1.36002C 7.785 0.437025 6.633 -2.14844e-05 5.181 -2.14844e-05C 2.535 -2.14844e-05 -1.2207e-06 1.82 -1.2207e-06 5.046L -1.2207e-06 11.82L 1.798 11.82L 1.798 5.046C 1.864 2.811 3.661 1.61401 5.528 1.59001C 6.748 1.56801 7.993 2.02698 8.823 3.04398L 8.823 11.82L 10.596 11.82L 10.596 0.162027L 9.09801 0.162027Z"/>
<path id="path13_fill" d="M 1.75 16.125L 1.75 6.19497L 7.22999 11.701L 9.421 11.701L 4.282 6.58902L 9.602 2.68555e-05L 7.507 2.68555e-05L 3.134 5.436L 1.75 4.14602L 1.75 2.68555e-05L -2.31934e-06 2.68555e-05L -2.31934e-06 16.125L 1.75 16.125Z"/>
<path id="path14_fill" d="M 9.10001 0.162027L 8.84599 1.36002C 7.78599 0.437025 6.63301 -2.14844e-05 5.18301 -2.14844e-05C 2.53601 -2.14844e-05 -6.46973e-06 1.82 -6.46973e-06 5.046L -6.46973e-06 11.82L 1.796 11.82L 1.796 5.046C 1.868 2.811 3.662 1.61401 5.529 1.59001C 6.749 1.56801 7.99201 2.02698 8.82401 3.04398L 8.82401 11.82L 10.598 11.82L 10.598 0.162027L 9.10001 0.162027Z"/>
<path id="path15_fill" d="M 8.52301 10.343C 8.52301 13.339 6.58799 14.723 4.53799 14.674C 3.56999 14.651 2.55699 14.212 1.72799 13.409L 1.72799 7.028C 2.53299 6.128 3.5 5.73599 4.816 5.89799C 7.209 6.128 8.52301 7.88003 8.52301 10.342L 8.52301 10.343ZM 10.228 10.273C 10.228 6.772 7.64701 4.33101 4.67501 4.35301C 3.68601 4.35301 2.64899 4.53902 1.72799 5.16002L 1.72799 -1.51367e-05L -4.63867e-06 -1.51367e-05L -4.63867e-06 16.174L 1.40499 16.174L 1.68301 14.952C 2.27901 15.69 3.36299 16.287 4.39999 16.312C 8.10599 16.426 10.228 13.982 10.228 10.273Z"/>
<path id="path16_fill" d="M 9.09901 0.162027L 8.84401 1.36002C 7.78501 0.437025 6.63401 -2.14844e-05 5.18101 -2.14844e-05C 2.53401 -2.14844e-05 1.09863e-05 1.82 1.09863e-05 5.046L 1.09863e-05 11.82L 1.79499 11.82L 1.79499 5.046C 1.86399 2.811 3.66201 1.61401 5.52601 1.59001C 6.74901 1.56801 7.99099 2.02698 8.81999 3.04398L 8.81999 11.82L 10.596 11.82L 10.596 0.162027L 9.09901 0.162027Z"/>
<path id="path17_fill" d="M 2.30401 20.8307L 4.17 20.8307L 4.17 18.2247L 2.30401 18.2247L 2.30401 20.8307ZM -9.52148e-06 1.50271C 1.49999 1.41071 2.37401 2.19469 2.37401 3.50869L 2.37401 16.3857L 4.19399 16.3857L 4.19399 3.50869C 4.19399 0.95069 2.39599 -0.20129 -9.52148e-06 0.0287097L -9.52148e-06 1.50271Z"/>
<path id="path18_fill" d="M 5.46782 10.5339C 0.537824 10.5109 0.397799 5.69492 5.2358 5.69492C 6.3638 5.69492 7.67882 6.0889 8.41582 6.9639L 8.41582 9.7739C 7.56082 10.3239 6.45882 10.5339 5.46782 10.5339ZM 8.71383 4.2919L 8.48281 5.30289C 7.65381 4.49689 6.4118 4.12993 5.2358 4.10593C -1.8372 4.03893 -1.72018 12.1219 5.44182 12.0309C 6.47882 12.0309 7.49282 11.7089 8.41582 11.2259L 8.41582 11.4559C 8.41582 15.4179 4.0158 15.2779 1.7108 13.6429L 0.790822 14.7029C 4.01482 17.3959 10.1408 16.7299 10.1408 11.4559L 10.1408 4.31388L 10.1658 4.31388L 10.1398 4.2919L 10.1398 4.26889L 10.0958 4.26889C 9.89081 4.10589 8.68981 3.0919 8.68981 2.1489C 8.68981 1.2739 10.3048 1.01889 10.3048 1.01889L 9.75182 0.00491639C 9.75182 0.00491639 7.37883 -0.179081 7.10183 1.70792C 6.89383 3.06992 8.06983 3.9449 8.71383 4.2919Z"/>
<path id="path19_fill" d="M 9.93001 16.171L 9.93001 14.327L 5.921 14.327L 5.921 3.41797e-06L 4.011 3.41797e-06L 4.011 14.327L 1.31836e-05 14.327L 1.31836e-05 16.171L 9.93001 16.171Z"/>
<path id="path20_fill" d="M 8.775 11.749L 10.736 3.98397C 10.896 3.45397 11.056 2.00501 11.083 1.47201L 11.196 1.47201C 11.218 2.07601 11.358 3.45398 11.52 4.00698L 13.704 11.749L 15.551 11.749L 12.071 0.00100342L 9.951 0.00100342L 7.99299 7.81002C 7.94699 7.97002 7.83201 9.23601 7.81001 9.37301L 7.718 9.37301C 7.718 9.35201 7.555 7.85502 7.555 7.81002L 5.62101 2.68555e-05L 3.50099 2.68555e-05L 9.76562e-06 11.749L 1.843 11.749L 4.033 4.00698C 4.285 3.22398 4.35299 1.91201 4.39799 1.47201L 4.51499 1.47201C 4.53799 2.16601 4.67499 3.63997 4.78999 3.98397L 6.774 11.749L 8.774 11.749L 8.775 11.749Z"/>
<path id="path21_fill" d="M 5.92199 1.58998C 8.03999 1.58998 10.066 3.06499 10.066 6.10499C 10.066 9.14499 8.04 10.575 5.923 10.575C 3.826 10.575 1.79699 9.14499 1.79699 6.10499C 1.79699 3.06499 3.826 1.58998 5.923 1.58998L 5.92199 1.58998ZM 5.923 1.17188e-05C 2.42 1.17188e-05 -3.17383e-06 2.69799 -3.17383e-06 6.10499C -3.17383e-06 9.51499 2.42 12.188 5.923 12.188C 9.446 12.188 11.865 9.51499 11.865 6.10499C 11.865 2.69799 9.445 1.17188e-05 5.923 1.17188e-05Z"/>
<path id="path22_fill" d="M 0.0220093 11.793L 1.84199 11.793L 1.84199 -2.00195e-05L 0.0220093 -2.00195e-05L 0.0220093 11.793ZM 6.10352e-06 16.215L 1.86301 16.215L 1.86301 13.632L 6.10352e-06 13.632L 6.10352e-06 16.215Z"/>
<path id="path23_fill" d="M 1.46484e-06 1.68197L 6.38001 10.111L 0.251985 10.089L 0.251985 11.701L 8.66001 11.701L 8.66001 10.529L 1.88901 1.58902L 8.66001 1.58902L 8.66001 2.68555e-05L 1.46484e-06 2.68555e-05L 1.46484e-06 1.68197Z"/>
<path id="path24_fill" d="M 1.52199 11.681L 1.75001 10.596C 2.41901 11.332 3.733 11.818 5.115 11.84C 8.271 11.771 10.596 10.089 10.596 6.68201L 10.596 3.41797e-06L 8.80101 3.41797e-06L 8.80101 6.68201C 8.77901 8.91401 7.256 10.065 5.183 10.202C 4.193 10.25 2.69301 9.95201 1.77501 9.05201L 1.77501 3.41797e-06L 1.44043e-05 3.41797e-06L 1.44043e-05 11.68L 1.52199 11.68L 1.52199 11.681Z"/>
<path id="path25_fill" d="M 5.459 6.61318C 2.947 6.58918 1.65901 5.5322 1.65901 3.9902C 1.65901 2.60719 2.83198 1.49819 5.22898 1.49819C 6.35798 1.49819 7.67201 2.09817 8.40901 2.97317L 8.40901 5.78316C 7.55501 6.33816 6.45 6.61318 5.459 6.61318ZM 8.72898 0.279197L 8.47599 1.31216C 7.64599 0.508156 6.40299 0.0271438 5.22999 0.000143841C 1.72599 -0.0198562 1.14746e-05 1.7302 1.14746e-05 3.9902C 1.14746e-05 6.2682 1.82001 8.15719 5.43501 8.11019C 6.47301 8.11019 7.533 7.72014 8.455 7.23714L 8.455 7.74416C 8.455 10.0442 6.841 10.6662 5.089 10.6662C 3.825 10.6662 2.48799 10.2322 1.51899 9.53817L 0.759014 10.8082C 2.28001 11.9132 3.756 12.2592 5.136 12.2592C 7.739 12.2812 10.133 11.0592 10.133 7.74416L 10.133 0.279197L 8.72999 0.279197L 8.72898 0.279197Z"/>
<path id="path26_fill" d="M 2.30302 20.8307L 4.16999 20.8307L 4.16999 18.2247L 2.30302 18.2247L 2.30302 20.8307ZM 6.10352e-06 1.50271C 1.49801 1.41071 2.37101 2.19469 2.37101 3.50869L 2.37101 16.3857L 4.193 16.3857L 4.193 3.50869C 4.193 0.95069 2.39601 -0.20129 6.10352e-06 0.0287097L 6.10352e-06 1.50271Z"/>
<path id="path27_fill" d="M 5.92199 1.58998C 8.03999 1.58998 10.065 3.06499 10.065 6.10499C 10.065 9.14499 8.03999 10.575 5.92199 10.575C 3.82399 10.575 1.79601 9.14499 1.79601 6.10499C 1.79601 3.06499 3.82399 1.58998 5.92199 1.58998ZM 5.92199 1.17188e-05C 2.41999 1.17188e-05 -9.0332e-06 2.69799 -9.0332e-06 6.10499C -9.0332e-06 9.51499 2.41999 12.188 5.92199 12.188C 9.44399 12.188 11.862 9.51499 11.862 6.10499C 11.862 2.69799 9.44399 1.17188e-05 5.92199 1.17188e-05Z"/>
<path id="path28_fill" d="M 1.77201 9.12098L 1.77201 3.41797e-06L 1.0498e-05 3.41797e-06L 1.0498e-05 11.68L 1.51701 11.68L 1.748 10.596C 2.438 11.354 3.38401 11.841 4.85801 11.841C 6.60801 11.841 8.13 11.126 8.843 9.83698C 9.627 11.285 11.19 11.887 12.853 11.887C 15.246 11.887 17.689 10.458 17.689 6.74701L 17.689 3.41797e-06L 15.915 3.41797e-06L 15.915 6.74799C 15.915 9.41999 14.441 10.319 12.737 10.319C 11.145 10.319 9.76501 9.28098 9.74201 6.97998L 9.71699 3.41797e-06L 8.012 3.41797e-06L 8.012 6.97998C 8.012 10.527 3.89001 11.196 1.77201 9.12098Z"/>
<path id="path29_fill" d="M 0.0210039 11.793L 1.84101 11.793L 1.84101 -2.00195e-05L 0.0210039 -2.00195e-05L 0.0210039 11.793ZM 0.00101489 16.215L 1.86301 16.215L 1.86301 13.632L 7.8125e-06 13.632L 7.8125e-06 16.215L 0.00101489 16.215Z"/>
</defs>
</svg>
