<svg xmlns="http://www.w3.org/2000/svg" height="157.5" width="522.9"><path d="M57.3 141.6h278.2c59.6-5.5 51.4-124.2 0-125.7H57.3C4.1 18 0 136.2 57.3 141.6zm-1.2 15.9h280.6l7.6-1.2 7-2 6.5-3 6-3.6 5.4-4.3 4.7-4.8 4.2-5.2 3.5-5.6 3-5.9 2.6-6 2-6.4 1.6-6.4 1.1-6.5.8-6.6.3-6.6v-6.7l-.4-6.6-.8-6.5-1.2-6.5-1.5-6.4-1.9-6.2-2.3-6-2.7-5.9-3.1-5.6-3.7-5.3-4-4.9-4.7-4.5-5.1-4-5.7-3.3-6.3-2.6L343 .7l-6.6-.7h-280l-6.8.8-6.7 1.7-6.3 2.6-5.8 3.4-5.2 4-4.7 4.6-4 5-3.6 5.3-3.1 5.6-2.7 6-2.2 6-1.8 6.2L2 57.6l-1 6.5-.7 6.6-.3 6.6v6.6l.5 6.6.9 6.6 1.2 6.4 1.7 6.4 2 6.2 2.6 6 3 5.9 3.5 5.5 4.1 5.2 4.7 4.7 5.3 4.3 5.8 3.7 6.4 2.8 6.9 2zm221.4-36V35.9h17.3v38l34.9-38h23.2l-32.2 33.3 34 52.3h-22.4l-23.5-40.2-14 14.3v25.9zM245.7 90l16.8 5.3a37.6 37.6 0 0 1-12.9 20.8 36 36 0 0 1-22.7 6.8 36.8 36.8 0 0 1-28-11.6 44.5 44.5 0 0 1-11-31.8 47 47 0 0 1 11-33.2c7.4-8 17-11.8 29-11.8 10.5 0 19 3 25.6 9.2 3.9 3.7 6.8 9 8.7 15.8l-17 4c-1-4.3-3.2-7.9-6.4-10.4a18.2 18.2 0 0 0-11.7-3.9c-6.4 0-11.5 2.3-15.5 6.9-3.9 4.5-5.9 11.9-5.9 22 0 11 2 18.6 5.9 23.2 3.8 4.6 8.9 6.9 15.1 6.9 4.6 0 8.6-1.5 11.9-4.4 3.3-3 5.7-7.5 7.1-13.8zM150 87.7l-11.8-31.8-11.6 31.8zm31.8 33.8H163l-7.5-19.5h-34.2l-7 19.5H95.8l33.3-85.6h18.3zM69 35.9h17.2v54.2c0 7-.6 12.5-1.8 16.3a23 23 0 0 1-9.1 12c-4.4 3-10.2 4.5-17.4 4.5-8.5 0-15-2.3-19.5-7-4.6-4.8-6.9-11.7-6.9-20.8l16.3-2a23 23 0 0 0 2.1 10.5c1.9 3 4.8 4.6 8.5 4.6 3.9 0 6.6-1.1 8.2-3.3 1.6-2.2 2.4-6.8 2.4-13.7zm330.8 86.6v-16.4h16.5v16.4zm32.9-62.2H448v9.1A22.6 22.6 0 0 1 467.4 59c7.2 0 13.4 2.8 18.4 8.5 5 5.6 7.6 13.5 7.6 23.7a36 36 0 0 1-7.6 24.2 23.8 23.8 0 0 1-27.9 6.6 32.2 32.2 0 0 1-8.8-7v31.3h-16.4zm16.3 30c0 3.6.3 6.6 1 9.2.7 2.6 1.7 4.7 3.1 6.3a12.7 12.7 0 0 0 19.7.5c2.5-3.1 3.8-8.1 3.8-15.1 0-6.6-1.3-11.4-4-14.6A12.2 12.2 0 0 0 463 72c-4 0-7.4 1.5-10 4.7-2.7 3-4 7.7-4 13.8zm57.4 32.2V36.6H523v86z" fill="#009ee0" fill-rule="evenodd"/></svg>